<?xml version="1.0" encoding="utf-8"?>
<!-- Generator: Adobe Illustrator 19.2.1, SVG Export Plug-In . SVG Version: 6.00 Build 0)  -->
<svg version="1.1" id="Слой_1" xmlns="http://www.w3.org/2000/svg" xmlns:xlink="http://www.w3.org/1999/xlink" x="0px" y="0px"
	 viewBox="0 0 201.1 58.4" style="enable-background:new 0 0 201.1 58.4;" xml:space="preserve">
<style type="text/css">
	.st0{fill:#FFFFFF;}
</style>
<path class="st0" d="M36.6,10.8c-5.3,0-9.7,4.4-9.7,9.8v20.9c0,5.4,4.3,9.8,9.7,9.8c5.3,0,9.7-4.4,9.7-9.8V20.6
	C46.3,15.2,41.9,10.8,36.6,10.8 M31.8,20.6c0-2.7,2.2-4.9,4.8-4.9c2.7,0,4.8,2.2,4.8,4.9v20.9c0,2.7-2.2,4.9-4.8,4.9
	s-4.8-2.2-4.8-4.9V20.6z"/>
<path class="st0" d="M140.5,10.8c-5.3,0-9.7,4.4-9.7,9.8v20.9c0,5.4,4.3,9.8,9.7,9.8c5.3,0,9.7-4.4,9.7-9.8V20.6
	C150.2,15.2,145.8,10.8,140.5,10.8 M135.7,20.6c0-2.7,2.2-4.9,4.8-4.9c2.7,0,4.8,2.2,4.8,4.9v20.9c0,2.7-2.2,4.9-4.8,4.9
	c-2.7,0-4.8-2.2-4.8-4.9V20.6z"/>
<path class="st0" d="M11.6,10.8c-4.3,0-7.7,0.8-7.8,0.9L2,12.2v38.4h4.8V16.1c1.3-0.2,3-0.4,4.8-0.4c2.7,0,4.8,2.2,4.8,4.9v30h4.9
	v-30C21.3,15.2,17,10.8,11.6,10.8"/>
<path class="st0" d="M62.3,10.8c-4.3,0-7.7,0.8-7.8,0.9l-1.8,0.5v38.4h4.9V36.3c1.6,0.2,3.2,0.3,4.8,0.3c5.3,0,9.7-4.4,9.7-9.8v-6.2
	C72,15.2,67.7,10.8,62.3,10.8 M57.5,16.1c1.3-0.2,3-0.4,4.8-0.4c2.7,0,4.8,2.2,4.8,4.9v6.2c0,2.7-2.2,4.9-4.8,4.9
	c-1.9,0-3.5-0.2-4.8-0.4V16.1z"/>
<path class="st0" d="M120.3,10.9l-10.1,25.4V16.1c0-8.2-6.6-14.9-14.7-14.9h-4v4.9h4c5.4,0,9.8,4.5,9.8,9.9v34.4h4.5l10-25.2v25.4
	h4.9V11L120.3,10.9z"/>
<path class="st0" d="M173.2,11.1c-1.3-0.2-3.5-0.3-5.2-0.3c-5.3,0-9.7,4.4-9.7,9.8v21.3c0,2.5-1.9,4.6-4.3,4.8l-0.9,0.1l0.5,4.9
	l0.9-0.1c5-0.5,8.7-4.7,8.7-9.7V20.6c0-2.7,2.2-4.9,4.8-4.9c0.6,0,1.3,0,2.1,0.1v34.8h4.9V11.4L173.2,11.1z"/>
<path class="st0" d="M105.8,53.4c-5.4,0-9.8-4.5-9.8-9.9V10.7h-4.9v32.9c0,0.5,0,1.1,0.1,1.6c-1.1,0.2-3,0.4-4.9,0.4
	c-2.7,0-4.8-2.2-4.8-4.9v-30h-4.9v30c0,5.4,4.3,9.8,9.7,9.8c2.6,0,4.8-0.3,6.2-0.6c2.4,5.2,7.6,8.5,13.2,8.5h0.8l2-4.9L105.8,53.4
	L105.8,53.4z"/>
<path class="st0" d="M192.4,11.4H188l-8.7,39.2h5l2.1-9.3h7.7l2,9.3h5L192.4,11.4z M187.4,36.5l2.8-12.5l2.8,12.5H187.4z"/>
</svg>
