<?xml version="1.0" encoding="utf-8"?>
<!-- Generator: Adobe Illustrator 19.2.1, SVG Export Plug-In . SVG Version: 6.00 Build 0)  -->
<svg version="1.1" id="Слой_1" xmlns="http://www.w3.org/2000/svg" xmlns:xlink="http://www.w3.org/1999/xlink" x="0px" y="0px"
	 viewBox="0 0 189.4 43.9" style="enable-background:new 0 0 189.4 43.9;" xml:space="preserve">
<style type="text/css">
	.st0{fill:#FFFFFF;}
</style>
<g>
	<path class="st0" d="M10.5,0.6c2.7,0,3.6,1.4,3.6,3.1c0,0.4,0,0.8-0.1,1.2l-1.9,10.2c0,0.2-0.2,0.4-0.5,0.4H9
		c-0.3,0-0.4-0.2-0.3-0.4l1.9-10.5c0.1-0.6,0.2-1-0.7-1H6.7c-0.9,0-1,0.4-1.1,1L3.7,15.1c0,0.2-0.1,0.4-0.5,0.4H0.6
		c-0.3,0-0.4-0.2-0.3-0.4L2.2,4.6c0.4-2.5,1.5-4,5-4H10.5z"/>
	<path class="st0" d="M25.6,9.1l-0.3,1.4c-0.6,3.4-2.4,5.2-6,5.2c-2.7,0-4.2-1.7-4.2-4.1c0-0.4,0-0.7,0.1-1.1l0.3-1.4
		c0.7-3.6,2.6-5.2,6-5.2c2.7,0,4.3,1.6,4.3,4.1C25.8,8.3,25.7,8.8,25.6,9.1z M21,6.6c-1.2,0-1.9,0.7-2.2,2.5l-0.3,1.4
		c-0.1,0.4-0.1,0.7-0.1,1c0,1,0.5,1.5,1.5,1.5c1.3,0,1.9-0.8,2.2-2.5l0.3-1.4c0.1-0.3,0.1-0.7,0.1-0.9C22.5,7.1,22,6.6,21,6.6z"/>
	<path class="st0" d="M37.9,4.4l-4.3,5.3l2.7,5.4v0.1c0,0.2-0.1,0.3-0.3,0.3h-2.9c-0.2,0-0.3-0.1-0.4-0.4L31.2,12l-2.4,3.1
		c-0.2,0.3-0.4,0.4-0.6,0.4h-2.7c-0.1,0-0.2-0.1-0.2-0.2c0-0.1,0-0.1,0.1-0.2l4.5-5.6l-2.5-5.1V4.3c0-0.1,0.1-0.3,0.3-0.3h2.9
		c0.2,0,0.3,0.2,0.4,0.4l1.3,2.8l2.1-2.8C34.6,4.1,34.8,4,35,4h2.7c0.1,0,0.2,0.1,0.2,0.2C37.9,4.3,37.9,4.4,37.9,4.4z"/>
	<path class="st0" d="M50.5,4.5L45,16.4c-1.1,2.4-2,3.3-4.9,3.3c-0.7,0-2-0.2-2.5-0.3c-0.2-0.1-0.4-0.1-0.4-0.3c0,0,0,0,0-0.1
		l0.3-1.6c0-0.2,0.2-0.4,0.5-0.4l0,0c0.6,0,1.8,0.2,2.5,0.2s1.1-0.2,1.5-1l0.3-0.6h-0.1c-0.8,0-1.6-0.3-1.7-1.9l-1.1-9.1
		c0,0,0,0,0-0.1c0-0.2,0.1-0.4,0.5-0.4h2.6c0.2,0,0.3,0.2,0.3,0.4l0.5,7.7c0,0.2,0.1,0.3,0.2,0.3h0.2l3.3-8c0.1-0.2,0.3-0.4,0.5-0.4
		h2.7C50.4,4.1,50.5,4.2,50.5,4.5C50.5,4.4,50.5,4.4,50.5,4.5z"/>
	<path class="st0" d="M57.7,15.6h-6.2l-0.4,2c0,0.2-0.2,0.4-0.5,0.4h-2.3c-0.3,0-0.4-0.2-0.3-0.4l0.8-4.4c0-0.2,0.2-0.4,0.5-0.4h1
		l3.1-7.2c0.7-1.5,2.1-1.9,3.2-1.9c1.2,0,2.4,0.3,2.6,1.9l0.6,7.2h1c0.3,0,0.4,0.2,0.3,0.4l-0.8,4.4c0,0.2-0.1,0.4-0.5,0.4h-2.3
		c-0.3,0-0.4-0.2-0.3-0.4L57.7,15.6z M53.7,12.8h3l-0.3-6.1c0-0.1,0-0.1-0.1-0.1s-0.1,0-0.1,0.1L53.7,12.8z"/>
	<path class="st0" d="M72.9,9.1l-0.2,1.2c-0.1,0.3-0.2,0.5-0.5,0.5h-6.5c0,0.3-0.1,0.6-0.1,0.8c0,1,0.5,1.4,1.8,1.4s3.1-0.1,3.9-0.2
		c0,0,0,0,0.1,0c0.2,0,0.3,0.1,0.3,0.3c0,0,0,0,0,0.1l-0.3,1.5c-0.1,0.3-0.1,0.5-0.5,0.5c-1.4,0.3-2.5,0.5-4.2,0.5
		c-2.2,0-4.2-1.2-4.2-4.1c0-0.3,0-0.7,0.1-1.1l0.2-1.4c0.6-3.5,2.7-5.3,6-5.3C71.5,3.8,73,5.7,73,8C73,8.4,73,8.8,72.9,9.1z
		 M68.4,6.5c-1.4,0-2,0.9-2.3,2.3h3.8C70,8.5,70,8.2,70,7.9C70,7,69.5,6.5,68.4,6.5z"/>
	<path class="st0" d="M84,15.1c0,0.3-0.2,0.4-0.5,0.4h-2.4c-0.2,0-0.4-0.1-0.4-0.4l0.7-4.2h-3.5l-0.7,4.2c0,0.3-0.2,0.4-0.5,0.4
		h-2.4c-0.2,0-0.4-0.1-0.4-0.4l1.9-10.7C75.9,4.1,76.1,4,76.3,4h2.4c0.2,0,0.4,0.1,0.3,0.4l-0.7,3.8h3.5l0.7-3.8
		C82.6,4.1,82.8,4,83,4h2.4c0.2,0,0.4,0.1,0.3,0.4L84,15.1z"/>
	<path class="st0" d="M86.7,15.6c-0.2,0-0.4-0.1-0.4-0.4l1.9-10.7c0.1-0.3,0.2-0.4,0.5-0.4h2.2c0.2,0,0.4,0.1,0.3,0.4l-1,5.4
		c0,0.1,0,0.1,0.1,0.1c0,0,0.1,0,0.2-0.1l4.3-5.4C95.1,4.2,95.3,4,95.6,4h2.2c0.3,0,0.4,0.2,0.3,0.4l-1.8,10.7
		c-0.1,0.3-0.3,0.4-0.5,0.4h-2.2c-0.3,0-0.4-0.2-0.3-0.4l0.9-5.2c0-0.1,0-0.1-0.1-0.1s-0.1,0-0.2,0.1L89.8,15
		c-0.3,0.4-0.6,0.5-0.9,0.5h-2.2V15.6z"/>
	<path class="st0" d="M109.6,9.1l-0.2,1.2c-0.1,0.3-0.2,0.5-0.5,0.5h-6.5c0,0.3-0.1,0.6-0.1,0.8c0,1,0.5,1.4,1.8,1.4
		s3.1-0.1,3.9-0.2c0,0,0,0,0.1,0c0.2,0,0.3,0.1,0.3,0.3c0,0,0,0,0,0.1l-0.3,1.5c-0.1,0.3-0.1,0.5-0.5,0.5c-1.4,0.3-2.5,0.5-4.2,0.5
		c-2.2,0-4.2-1.2-4.2-4.1c0-0.3,0-0.7,0.1-1.1l0.2-1.4c0.6-3.5,2.7-5.3,6-5.3c2.7,0,4.2,1.9,4.2,4.2C109.7,8.4,109.6,8.8,109.6,9.1z
		 M105.1,6.5c-1.4,0-2,0.9-2.3,2.3h3.8c0.1-0.3,0.1-0.6,0.1-0.9C106.6,7,106.2,6.5,105.1,6.5z"/>
	<path class="st0" d="M5.2,29c0.6-0.2,1.2-0.2,1.5-0.2c2.8,0,4.2,1.7,4.2,4.2c0,0.4,0,0.9-0.1,1.3L10.7,35c-0.6,3.2-2.5,4.9-5.9,4.9
		c-3,0-4.2-1.8-4.2-4.2c0-0.5,0-1,0.1-1.6l0.1-0.7c0.7-3.8,1.4-6.6,5.5-7.4l1.1-0.2c1.4-0.3,1.7-0.5,1.9-1c0-0.2,0.2-0.3,0.3-0.3H12
		c0.1,0,0.3,0.1,0.2,0.3c-0.4,1.7-1.4,2.8-3.8,3.3L7,28.4C6.3,28.5,5.6,28.7,5.2,29z M7.5,34c0.1-0.3,0.1-0.6,0.1-0.9
		c0-1.1-0.5-1.6-1.5-1.6c-1.2,0-1.9,0.7-2.2,2.5l-0.1,0.7c-0.1,0.3-0.1,0.7-0.1,0.9c0,1.1,0.5,1.6,1.5,1.6c1.2,0,1.9-0.7,2.2-2.5
		L7.5,34z"/>
	<path class="st0" d="M22.8,33.3l-0.2,1.2c-0.1,0.3-0.2,0.5-0.5,0.5h-6.5c0,0.3-0.1,0.6-0.1,0.8c0,1,0.5,1.4,1.8,1.4
		s3.1-0.1,3.9-0.2c0,0,0,0,0.1,0c0.2,0,0.3,0.1,0.3,0.3c0,0,0,0,0,0.1l-0.3,1.5c-0.1,0.3-0.1,0.5-0.5,0.5c-1.4,0.3-2.5,0.5-4.2,0.5
		c-2.2,0-4.2-1.2-4.2-4.1c0-0.3,0-0.7,0.1-1.1l0.2-1.4c0.6-3.5,2.7-5.3,6-5.3c2.7,0,4.2,1.9,4.2,4.2C22.9,32.6,22.9,33,22.8,33.3z
		 M18.3,30.7c-1.4,0-2,0.9-2.3,2.3h3.8c0.1-0.3,0.1-0.6,0.1-0.9C19.8,31.2,19.4,30.7,18.3,30.7z"/>
	<path class="st0" d="M25.7,35c-0.3,0-0.4-0.2-0.3-0.4l0.3-1.5c0-0.2,0.2-0.4,0.5-0.4h2.9c0.9,0,1.4-0.5,1.4-1.5
		c0-0.5-0.4-0.7-1.3-0.7c-0.8,0-2.2,0-3.3,0.1c-0.2,0-0.4,0-0.3-0.3l0.3-1.5c0-0.2,0.1-0.3,0.4-0.3c1.1-0.3,2.4-0.5,3.7-0.5
		c2.5,0,3.9,0.7,3.9,2.5c0,1.3-0.6,2.6-1.9,3.3c0.6,0.3,1,1,1,1.8c0,0.2-0.1,0.5-0.1,0.8c-0.5,2.5-2.4,3.4-5.1,3.4
		c-1.3,0-2.5-0.2-3.5-0.5C24,39.2,24,39.1,24,39l0.3-1.5c0.1-0.3,0.2-0.3,0.5-0.3c1.1,0.1,2.5,0.1,3.3,0.1c1.2,0,1.5-0.4,1.6-1
		c0.1-0.4,0.1-0.5,0.1-0.7c0-0.4-0.2-0.7-0.9-0.7h-3.2V35z"/>
	<path class="st0" d="M41.6,28.2H44c0.3,0,0.4,0.2,0.3,0.4l-0.5,2.8c-0.1,0.3-0.1,0.6-0.1,0.9c0,0.7,0.3,1,1.3,1
		c0.6,0,1.2-0.3,2-0.6l0.7-4c0-0.2,0.2-0.4,0.5-0.4h2.4c0.3,0,0.4,0.2,0.3,0.4L49,39.4c0,0.2-0.1,0.4-0.5,0.4H46
		c-0.3,0-0.4-0.2-0.3-0.4l0.7-4.3c-1.1,0.7-2,0.9-3.2,0.9c-2.2,0-2.9-1.4-2.9-3.2c0-0.5,0.1-0.9,0.1-1.4l0.5-2.8
		C41.2,28.4,41.3,28.2,41.6,28.2z"/>
	<path class="st0" d="M64,28.7l-5.5,11.9c-1.1,2.4-2,3.3-4.9,3.3c-0.7,0-2-0.2-2.5-0.3c-0.2-0.1-0.4-0.1-0.4-0.3c0,0,0,0,0-0.1
		l0.3-1.6c0-0.2,0.2-0.4,0.5-0.4l0,0c0.6,0,1.8,0.2,2.5,0.2s1.1-0.2,1.5-1l0.3-0.6l0,0c-0.8,0-1.6-0.3-1.7-1.9L53,28.8
		c0,0,0,0,0-0.1c0-0.2,0.1-0.4,0.5-0.4h2.6c0.2,0,0.3,0.2,0.3,0.4l0.5,7.7c0,0.2,0.1,0.3,0.2,0.3h0.2l3.3-8c0.1-0.2,0.3-0.4,0.5-0.4
		h2.7c0.2,0,0.3,0.1,0.3,0.3C64.1,28.6,64.1,28.6,64,28.7z"/>
	<path class="st0" d="M67.8,39.9c-1.1,0-2.4-0.1-3.5-0.3c-0.5-0.1-0.5-0.3-0.4-0.8l1.8-9.9c0.1-0.4,0.4-0.6,0.8-0.6
		c1-0.1,2.3-0.2,3.6-0.2c2.7,0,4.6,0.6,4.6,2.8c0,0.2,0,0.4-0.1,0.8c-0.2,1-0.7,1.8-1.7,2.2c0.7,0.2,1,0.9,1,1.8
		c0,0.2,0,0.4-0.1,0.8C73.4,39.3,70.7,39.9,67.8,39.9z M70.7,35.8c0-0.6-0.1-0.9-1.3-0.9h-1.6l-0.4,2.5c0.1,0,0.3,0,1.1,0
		c1.7,0,2.1-0.4,2.2-1.2C70.7,36,70.7,35.9,70.7,35.8z M71.4,31.5C71.4,31.4,71.4,31.4,71.4,31.5c0-0.8-0.4-1-1.8-1
		c-0.3,0-0.8,0-1,0l-0.4,2.3h1.6c1.1,0,1.5-0.5,1.6-1.1L71.4,31.5z"/>
	<path class="st0" d="M84.7,28.8l-0.3,1.8c0,0.2-0.2,0.3-0.4,0.3l0,0c-0.7-0.1-1.3-0.1-2.4-0.1c-1,0-1.7,0.5-2.1,2.3l-0.3,1.7
		c-0.1,0.4-0.1,0.7-0.1,1c0,1.1,0.5,1.4,1.4,1.4c1.1,0,1.7-0.1,2.5-0.1l0,0c0.2,0,0.3,0.1,0.3,0.3c0,0,0,0,0,0.1L83,39.3
		c-0.1,0.3-0.2,0.4-0.5,0.5c-0.6,0.1-1.5,0.3-2.7,0.3c-2.4,0-4-1.4-4-3.9c0-0.4,0-0.8,0.1-1.2l0.3-1.7c0.7-3.8,2.7-5.1,5.6-5.1
		c1.2,0,2.1,0.2,2.6,0.3c0.2,0.1,0.4,0.1,0.4,0.3C84.7,28.7,84.7,28.8,84.7,28.8z"/>
	<path class="st0" d="M91.8,30.8l-1.5,8.5c0,0.3-0.3,0.4-0.5,0.4h-2.4c-0.2,0-0.4-0.1-0.3-0.4l1.5-8.5h-2.5c-0.3,0-0.4-0.2-0.4-0.4
		l0.3-1.8c0-0.2,0.2-0.4,0.5-0.4h8.3c0.3,0,0.4,0.2,0.3,0.4l-0.3,1.8c0,0.2-0.2,0.4-0.5,0.4H91.8z"/>
	<path class="st0" d="M98.8,39.9c-1.1,0-2.4-0.1-3.5-0.3c-0.5-0.1-0.5-0.3-0.4-0.8l1.8-9.9c0.1-0.4,0.4-0.6,0.8-0.6
		c1-0.1,2.3-0.2,3.6-0.2c2.7,0,4.6,0.6,4.6,2.8c0,0.2,0,0.4-0.1,0.8c-0.2,1-0.7,1.8-1.7,2.2c0.7,0.2,1,0.9,1,1.8
		c0,0.2,0,0.4-0.1,0.8C104.4,39.3,101.7,39.9,98.8,39.9z M101.7,35.8c0-0.6-0.1-0.9-1.3-0.9h-1.6l-0.4,2.5c0.1,0,0.3,0,1.1,0
		c1.7,0,2.1-0.4,2.2-1.2C101.7,36,101.7,35.9,101.7,35.8z M102.4,31.5C102.4,31.4,102.4,31.4,102.4,31.5c0-0.8-0.4-1-1.8-1
		c-0.3,0-0.8,0-1,0l-0.4,2.3h1.6c1.1,0,1.5-0.5,1.6-1.1L102.4,31.5z"/>
	<path class="st0" d="M114.8,39.7h-2.3c-0.2,0-0.4-0.1-0.3-0.4l0.1-0.3c-0.9,0.6-1.8,0.9-3,0.9c-1.5,0-3-1-3-2.9c0-0.3,0-0.6,0.1-1
		v-0.2c0.5-2.3,2.2-3,5.6-3h1.1l0.1-0.7c0-0.2,0-0.3,0-0.4c0-0.8-0.5-0.9-1.3-0.9c-1.3,0-2.7,0.1-3.4,0.1c-0.3,0-0.4-0.1-0.4-0.4
		l0.3-1.6c0-0.2,0.2-0.4,0.5-0.4c0.8-0.2,2.2-0.4,3.6-0.4c2.5,0,4.1,0.8,4.1,3.1c0,0.4,0,0.7-0.1,1.2l-1.2,7
		C115.2,39.6,115,39.7,114.8,39.7z M112.9,34.8h-1.1c-1.4,0-1.8,0.5-2,1.5v0.2c0,0.1,0,0.2,0,0.3c0,0.5,0.4,0.7,1.1,0.7
		c0.6,0,1.2-0.2,1.7-0.4L112.9,34.8z"/>
	<path class="st0" d="M128.4,30.9c-0.9,0-1,0.4-1.1,1l-1.3,7.4c0,0.2-0.1,0.4-0.5,0.4H123c-0.3,0-0.4-0.2-0.3-0.4l1.3-7.4
		c0.4-2.5,1.4-3.7,4.8-3.7h2.4c0.3,0,0.4,0.2,0.3,0.4l-0.3,1.9c0,0.2-0.2,0.4-0.5,0.4C130.7,30.9,128.4,30.9,128.4,30.9z"/>
	<path class="st0" d="M142.1,33.3l-0.3,1.4c-0.6,3.4-2.4,5.2-6,5.2c-2.7,0-4.2-1.7-4.2-4.1c0-0.4,0-0.7,0.1-1.1l0.3-1.4
		c0.7-3.6,2.6-5.2,6-5.2c2.7,0,4.3,1.6,4.3,4.1C142.2,32.5,142.1,33,142.1,33.3z M137.5,30.8c-1.2,0-1.9,0.7-2.2,2.5l-0.3,1.4
		c-0.1,0.4-0.1,0.7-0.1,1c0,1,0.5,1.5,1.5,1.5c1.3,0,1.9-0.8,2.2-2.5l0.3-1.4c0.1-0.3,0.1-0.7,0.1-0.9
		C138.9,31.3,138.5,30.8,137.5,30.8z"/>
	<path class="st0" d="M149.4,30.9c0-0.2-0.1-0.2-0.2,0l-3.4,8.4c-0.1,0.2-0.3,0.4-0.6,0.4h-2.4c-0.4,0-0.5-0.3-0.4-0.6l4-9.3
		c0.7-1.5,2.1-1.9,3.2-1.9c1.2,0,2.4,0.3,2.6,1.9l0.8,9.4c0,0.4,0,0.6-0.4,0.6h-2.4c-0.4,0-0.5-0.2-0.5-0.4L149.4,30.9z"/>
	<path class="st0" d="M164.9,33.3l-0.3,1.4c-0.6,3.4-2.4,5.2-6,5.2c-2.7,0-4.2-1.7-4.2-4.1c0-0.4,0-0.7,0.1-1.1l0.3-1.4
		c0.7-3.6,2.6-5.2,6-5.2c2.7,0,4.3,1.6,4.3,4.1C165.1,32.5,165,33,164.9,33.3z M160.3,30.8c-1.2,0-1.9,0.7-2.2,2.5l-0.3,1.4
		c-0.1,0.4-0.1,0.7-0.1,1c0,1,0.5,1.5,1.5,1.5c1.3,0,1.9-0.8,2.2-2.5l0.3-1.4c0.1-0.3,0.1-0.7,0.1-0.9
		C161.8,31.3,161.3,30.8,160.3,30.8z"/>
	<path class="st0" d="M174.4,39.7h-6.2l-0.4,2c0,0.2-0.2,0.4-0.5,0.4H165c-0.3,0-0.4-0.2-0.3-0.4l0.8-4.4c0-0.2,0.2-0.4,0.5-0.4h1
		l3.1-7.2c0.7-1.5,2.1-1.9,3.2-1.9c1.2,0,2.4,0.3,2.6,1.9l0.6,7.2h1c0.3,0,0.4,0.2,0.3,0.4l-0.8,4.4c0,0.2-0.1,0.4-0.5,0.4h-2.3
		c-0.3,0-0.4-0.2-0.3-0.4L174.4,39.7z M170.4,37h3l-0.3-6.1c0-0.1,0-0.1-0.1-0.1s-0.1,0-0.1,0.1L170.4,37z"/>
	<path class="st0" d="M187.6,39.7h-2.3c-0.2,0-0.4-0.1-0.3-0.4l0.1-0.3c-0.9,0.6-1.8,0.9-3,0.9c-1.5,0-3-1-3-2.9c0-0.3,0-0.6,0.1-1
		v-0.2c0.5-2.3,2.2-3,5.6-3h1.1l0.1-0.7c0-0.2,0-0.3,0-0.4c0-0.8-0.5-0.9-1.3-0.9c-1.3,0-2.7,0.1-3.4,0.1c-0.3,0-0.4-0.1-0.4-0.4
		l0.3-1.6c0-0.2,0.2-0.4,0.5-0.4c0.8-0.2,2.2-0.4,3.6-0.4c2.5,0,4.1,0.8,4.1,3.1c0,0.4,0,0.7-0.1,1.2l-1.2,7
		C188.1,39.6,187.9,39.7,187.6,39.7z M185.7,34.8h-1.1c-1.4,0-1.8,0.5-2,1.5v0.2c0,0.1,0,0.2,0,0.3c0,0.5,0.4,0.7,1.1,0.7
		c0.6,0,1.2-0.2,1.7-0.4L185.7,34.8z"/>
</g>
</svg>
